HIERARCHY
ROOT SpineBase
{
  OFFSET 0.000000 0.000000 0.000000
  CHANNELS 6 Xposition Yposition Zposition Zrotation Xrotation Yrotation
  JOINT SpineMid
  {
    OFFSET 0.000000 30.931253 0.000000
    CHANNELS 3 Zrotation Xrotation Yrotation
    JOINT SpineShoulder
    {
      OFFSET -0.030673 22.947434 -0.742089
      CHANNELS 3 Zrotation Xrotation Yrotation
      JOINT Neck
      {
        OFFSET 0.046917 7.600182 -0.575963
        CHANNELS 3 Zrotation Xrotation Yrotation
        JOINT Head
        {
          OFFSET 3.605461 9.028454 4.808386
          CHANNELS 3 Zrotation Xrotation Yrotation
          End Site
          {
            OFFSET 0 0 0
          }
        }
      }
      JOINT ShoulderLeft
      {
        OFFSET -2.166363 -4.377400 -13.184833
        CHANNELS 3 Zrotation Xrotation Yrotation
        JOINT ElbowLeft
        {
          OFFSET 5.362957 -24.336663 -5.498032
          CHANNELS 3 Zrotation Xrotation Yrotation
          JOINT WristLeft
          {
            OFFSET 7.151591 -20.516431 5.153179
            CHANNELS 3 Zrotation Xrotation Yrotation
            JOINT HandLeft
            {
              OFFSET -0.280662 -4.654735 4.091725
              CHANNELS 3 Zrotation Xrotation Yrotation
              JOINT HandTipLeft
              {
                OFFSET 4.438615 -7.821629 2.576352
                CHANNELS 3 Zrotation Xrotation Yrotation
                End Site
                {
                  OFFSET 0 0 0
                }
              }
              JOINT ThumbLeft
              {
                OFFSET -4.088749 -1.014299 -0.405489
                CHANNELS 3 Zrotation Xrotation Yrotation
                End Site
                {
                  OFFSET 0 0 0
                }
              }
            }
          }
        }
      }
      JOINT ShoulderRight
      {
        OFFSET 12.146546 -3.825198 8.968413
        CHANNELS 3 Zrotation Xrotation Yrotation
        JOINT ElbowRight
        {
          OFFSET 10.919539 -26.770953 -5.135807
          CHANNELS 3 Zrotation Xrotation Yrotation
          JOINT WristRight
          {
            OFFSET -5.798269 -26.055761 -3.533421
            CHANNELS 3 Zrotation Xrotation Yrotation
            JOINT HandRight
            {
              OFFSET 0.019447 -5.800944 -2.263691
              CHANNELS 3 Zrotation Xrotation Yrotation
              JOINT HandTipRight
              {
                OFFSET -1.302478 -6.557358 0.174868
                CHANNELS 3 Zrotation Xrotation Yrotation
                End Site
                {
                  OFFSET 0 0 0
                }
              }
              JOINT ThumbRight
              {
                OFFSET 1.781025 -0.550355 -0.694495
                CHANNELS 3 Zrotation Xrotation Yrotation
                End Site
                {
                  OFFSET 0 0 0
                }
              }
            }
          }
        }
      }
    }
  }
  JOINT HipLeft
  {
    OFFSET -4.124595 0.787373 -7.390421
    CHANNELS 3 Zrotation Xrotation Yrotation
    JOINT KneeLeft
    {
      OFFSET -3.121544 -35.517382 3.229561
      CHANNELS 3 Zrotation Xrotation Yrotation
      JOINT AnkleLeft
      {
        OFFSET -6.104527 -33.963377 2.738646
        CHANNELS 3 Zrotation Xrotation Yrotation
        JOINT FootLeft
        {
          OFFSET 3.387980 -7.103309 -2.243238
          CHANNELS 3 Zrotation Xrotation Yrotation
          End Site
          {
            OFFSET 0 0 0
          }
        }
      }
    }
  }
  JOINT HipRight
  {
    OFFSET 3.403899 1.024343 0.635074
    CHANNELS 3 Zrotation Xrotation Yrotation
    JOINT KneeRight
    {
      OFFSET -7.920871 -36.969580 -5.510111
      CHANNELS 3 Zrotation Xrotation Yrotation
      JOINT AnkleRight
      {
        OFFSET -7.296153 -33.536038 3.559049
        CHANNELS 3 Zrotation Xrotation Yrotation
        JOINT FootRight
        {
          OFFSET 11.529030 -2.833830 -11.290187
          CHANNELS 3 Zrotation Xrotation Yrotation
          End Site
          {
            OFFSET 0 0 0
          }
        }
      }
    }
  }
}
MOTION
Frames: 14
Frame Time: 0.033333
41.390432 82.958056 361.584723 -4.437476 1.878786 -43.491960 0.073063 -0.227208 43.410133 0.512258 -0.029517 -0.164623 5.288086 1.521998 -1.532564 0.000000 0.000000 0.000000 49.701975 -1.448994 -8.434995 -6.567087 -25.911877 17.694865 -0.106533 24.414288 22.292195 52.057717 15.464052 -5.769953 0.000000 0.000000 0.000000 0.000000 0.000000 0.000000 8.784759 34.816199 12.328586 -175.250760 -15.855787 -92.193915 -9.625777 11.127069 78.427753 6.517701 29.950959 -28.179271 0.000000 0.000000 0.000000 0.000000 0.000000 0.000000 6.474350 5.943382 43.610701 -6.955332 -2.310884 -0.500143 1.818712 -1.785578 -0.827261 0.000000 0.000000 0.000000 11.155828 -19.429540 50.361459 37.797286 39.373963 -24.596285 -135.515071 -46.451650 -70.949569 0.000000 0.000000 0.000000
41.696944 83.069104 361.434658 -4.559497 2.212959 -41.011341 -0.002457 -0.380377 40.930083 0.481509 -0.044850 -0.180635 5.307740 2.118616 -1.676062 0.000000 0.000000 0.000000 48.604697 -1.510624 -7.974692 -4.259957 -25.827539 17.824895 -0.208020 24.707216 22.624473 51.157856 12.490368 -5.668357 0.000000 0.000000 0.000000 0.000000 0.000000 0.000000 16.962941 23.117930 5.402303 -178.822717 -23.458660 -81.262335 -2.949690 -0.351139 47.896546 0.320129 29.725566 -16.924110 0.000000 0.000000 0.000000 0.000000 0.000000 0.000000 7.003730 5.345915 41.160456 -6.866325 -2.103191 -0.510457 2.826052 -4.598291 -2.403317 0.000000 0.000000 0.000000 9.979704 -20.287503 47.750108 37.795289 38.944832 -24.217229 -141.895900 -40.287338 -78.041139 0.000000 0.000000 0.000000
41.801566 82.829579 361.131094 -4.796921 2.668333 -37.786775 0.112782 -0.514421 37.714219 0.501610 -0.050991 -0.189150 4.848279 2.838571 -1.680635 0.000000 0.000000 0.000000 47.004722 -1.197075 -7.501731 2.874258 -27.783427 19.817267 -3.110973 23.200728 24.316494 53.619840 -32.726867 4.625584 0.000000 0.000000 0.000000 0.000000 0.000000 0.000000 30.040234 1.833818 -2.646215 160.493082 -41.652821 -92.089511 -5.736943 -9.098814 18.172232 -7.751440 32.322630 14.017063 0.000000 0.000000 0.000000 0.000000 0.000000 0.000000 8.363665 4.925103 38.025849 -7.777241 -1.980082 -0.589702 7.446351 -0.520506 -1.824468 0.000000 0.000000 0.000000 7.739005 -20.244420 43.855661 36.307838 36.009844 -21.637169 -126.560810 -55.651849 -55.063411 0.000000 0.000000 0.000000
41.814251 82.462578 360.817704 -5.039193 3.202977 -35.203977 0.299567 -0.581000 35.152839 0.505888 0.088788 -0.189804 4.339218 2.679383 -1.456651 0.000000 0.000000 0.000000 43.670444 -0.772575 -6.587957 16.322093 -32.042325 24.114183 -8.548455 21.689005 27.503560 35.788421 -54.235778 -7.859413 0.000000 0.000000 0.000000 0.000000 0.000000 0.000000 40.975461 -30.480191 -6.686200 109.335633 -55.192406 -142.167636 -2.657885 -3.197849 25.372120 -5.461351 23.449725 -4.562990 0.000000 0.000000 0.000000 0.000000 0.000000 0.000000 9.846789 4.401364 35.578716 -8.681343 -1.999366 -0.623722 7.326510 1.237298 -1.202450 0.000000 0.000000 0.000000 6.321103 -21.221868 41.076953 37.702468 35.029473 -21.580341 -111.214599 -61.647512 -34.927601 0.000000 0.000000 0.000000
41.740967 81.922209 360.493850 -5.206946 3.709438 -33.404367 0.487470 -0.572495 33.382944 0.509116 0.289331 -0.183337 3.309533 2.003467 -0.889475 0.000000 0.000000 0.000000 42.181781 -3.164896 -5.711944 34.730558 -34.319732 32.018856 -23.969708 28.927143 31.082359 24.208178 -61.128582 -16.816962 0.000000 0.000000 0.000000 0.000000 0.000000 0.000000 46.310893 -52.124830 -6.274359 75.665040 -42.387030 165.861259 -3.962723 3.052947 37.988972 -5.664013 14.188580 -16.477670 0.000000 0.000000 0.000000 0.000000 0.000000 0.000000 11.263683 3.812125 33.948765 -9.982316 -1.611866 -0.730377 8.176580 2.709808 -0.686500 0.000000 0.000000 0.000000 5.549930 -22.222088 39.228077 39.063450 35.016202 -22.105868 -98.077598 -62.550246 -21.660764 0.000000 0.000000 0.000000
41.310189 81.192003 360.232013 -5.708835 4.155855 -32.424562 0.688184 -0.458574 32.439648 0.531208 0.545482 -0.183781 2.574087 1.437596 -0.411277 0.000000 0.000000 0.000000 43.969392 -8.674413 -4.877416 46.006208 -31.629971 35.904516 -32.995612 28.311241 37.013781 16.293603 -53.665404 -27.450920 0.000000 0.000000 0.000000 0.000000 0.000000 0.000000 49.172176 -60.965655 -4.741719 73.273698 -27.461240 126.008761 -10.887394 8.683405 72.705898 -8.832785 1.375035 -44.510671 0.000000 0.000000 0.000000 0.000000 0.000000 0.000000 13.173256 3.731131 33.141504 -11.103457 -1.111822 -0.817815 6.695902 1.841460 -0.561286 0.000000 0.000000 0.000000 5.620231 -23.078034 38.349271 41.475261 35.586695 -23.497647 -88.833591 -60.661653 -15.876677 0.000000 0.000000 0.000000
40.649810 80.426550 360.068409 -6.393071 4.479724 -32.305023 0.876599 -0.240588 32.361525 0.585374 0.781424 -0.185837 2.104435 1.049184 -0.060013 0.000000 0.000000 0.000000 46.898008 -12.355556 -4.194682 51.804707 -29.438754 37.978187 -39.373845 30.411793 41.024890 10.984228 -46.791129 -31.868803 0.000000 0.000000 0.000000 0.000000 0.000000 0.000000 52.148380 -62.627522 -2.812409 77.923035 -19.577794 87.266740 -14.881922 1.069768 111.708425 -22.953895 -12.842871 -131.955158 0.000000 0.000000 0.000000 0.000000 0.000000 0.000000 15.242108 4.115394 33.150184 -12.076966 -0.508790 -0.902864 4.547007 -0.117885 -0.783915 0.000000 0.000000 0.000000 6.462114 -23.474944 38.416022 44.003935 36.523696 -25.248779 -84.546947 -57.782173 -18.163258 0.000000 0.000000 0.000000
39.979902 79.828912 360.099284 -7.152497 4.695094 -32.248015 0.979916 0.049666 32.347912 0.661444 0.933410 -0.191180 1.892001 0.809803 0.186561 0.000000 0.000000 0.000000 51.373199 -14.190048 -3.745210 50.967947 -23.682852 36.983165 -45.870129 29.252796 41.361096 15.915519 -42.375207 -28.171117 0.000000 0.000000 0.000000 0.000000 0.000000 0.000000 55.335535 -58.349588 -1.171372 77.149965 -16.403079 57.937171 -19.563363 -8.773556 160.761629 -35.004390 -6.061095 173.451760 0.000000 0.000000 0.000000 0.000000 0.000000 0.000000 17.049050 4.793030 33.140313 -12.658771 -0.118160 -0.976938 2.274178 -1.859740 -0.984061 0.000000 0.000000 0.000000 7.514988 -23.630507 38.554398 45.866796 37.596247 -26.866073 -85.705263 -56.923488 -22.259438 0.000000 0.000000 0.000000
39.297199 79.303847 360.214885 -7.934790 4.902749 -32.581423 1.031245 0.291867 32.723884 0.686615 1.039641 -0.205669 1.692025 0.584446 0.528564 0.000000 0.000000 0.000000 55.896106 -16.399774 -3.063560 43.708879 -17.665674 33.083571 -43.519358 26.059724 38.771686 16.575803 -36.534063 -27.296472 0.000000 0.000000 0.000000 0.000000 0.000000 0.000000 54.230572 -47.228284 -1.973803 75.299548 -17.284365 53.441623 10.737396 -23.571444 128.535747 -2.380933 -17.023396 -177.998174 0.000000 0.000000 0.000000 0.000000 0.000000 0.000000 18.567250 5.646458 33.457399 -12.745702 0.053980 -1.017431 0.648693 -3.680967 -1.603823 0.000000 0.000000 0.000000 9.031895 -23.555304 39.131634 47.199949 38.773125 -28.403450 -91.014323 -56.631149 -29.282355 0.000000 0.000000 0.000000
38.651353 78.888987 360.367500 -8.660669 5.077277 -32.705184 1.000475 0.487872 32.886680 0.698310 0.998610 -0.229466 1.014940 0.851641 1.006401 0.000000 0.000000 0.000000 60.269129 -17.944106 -2.475848 30.165002 -10.851057 28.230990 -34.686728 20.816251 33.991526 10.392463 -27.044089 -28.806856 0.000000 0.000000 0.000000 0.000000 0.000000 0.000000 51.907790 -39.397871 -2.681329 73.261618 -17.820306 45.876128 -13.471970 -47.054351 -28.806042 31.931483 47.446153 -48.889133 0.000000 0.000000 0.000000 0.000000 0.000000 0.000000 20.033467 6.496384 33.546781 -13.144648 0.228739 -1.093111 -0.717574 -6.003652 -2.464492 0.000000 0.000000 0.000000 10.561234 -23.583141 39.531297 47.890184 40.080132 -29.796377 -101.846790 -55.244315 -42.917569 0.000000 0.000000 0.000000
38.153155 78.616375 360.584716 -9.208352 5.163031 -32.633754 0.862577 0.612436 32.839827 0.709040 0.893828 -0.255659 0.124297 1.386614 1.519351 0.000000 0.000000 0.000000 62.028147 -18.530916 -2.150408 12.575406 -4.342133 23.695413 -18.988764 15.497224 29.708660 6.704669 -15.711494 -27.954515 0.000000 0.000000 0.000000 0.000000 0.000000 0.000000 47.686616 -34.944997 -3.455841 71.159938 -17.020688 33.702173 -9.574778 -38.644532 -26.475023 26.289248 45.841131 -21.124736 0.000000 0.000000 0.000000 0.000000 0.000000 0.000000 21.004408 7.236983 33.412409 -13.984603 0.163062 -1.192609 -1.623984 -7.116439 -2.673594 0.000000 0.000000 0.000000 11.923772 -23.650121 39.726380 47.807449 41.379084 -30.826177 -110.779017 -50.405137 -59.880266 0.000000 0.000000 0.000000
37.818710 78.557622 360.840308 -9.591875 5.137429 -32.298767 0.689765 0.708373 32.515886 0.661609 0.744424 -0.288031 -0.132783 1.703006 1.840908 0.000000 0.000000 0.000000 62.265660 -18.478538 -2.110432 3.223255 0.531451 21.725424 -6.748130 12.334239 30.624728 -8.164361 -6.120930 -32.878811 0.000000 0.000000 0.000000 0.000000 0.000000 0.000000 42.114010 -32.604118 -4.332100 68.874885 -13.524203 17.593390 -6.084588 -36.457171 -9.994062 29.981616 38.276846 -10.016246 0.000000 0.000000 0.000000 0.000000 0.000000 0.000000 21.557854 7.866368 32.994714 -14.495748 0.027902 -1.286213 -0.293123 -7.624368 -3.118759 0.000000 0.000000 0.000000 12.662373 -23.915227 39.597616 47.138332 42.103433 -31.104782 -113.550822 -43.343219 -74.802928 0.000000 0.000000 0.000000
37.504450 78.519376 360.983175 -9.974168 5.160215 -31.974962 0.586656 0.705704 32.198716 0.584713 0.551902 -0.327976 -0.727751 2.074221 2.360921 0.000000 0.000000 0.000000 61.036434 -17.319476 -2.430986 -1.807389 2.915628 20.587761 3.107825 9.985034 33.692307 -18.762368 0.323384 -36.918171 0.000000 0.000000 0.000000 0.000000 0.000000 0.000000 37.503749 -27.711259 -4.490620 66.492517 -11.943465 11.236102 4.635894 -43.187358 1.823254 28.543764 38.913739 -9.670279 0.000000 0.000000 0.000000 0.000000 0.000000 0.000000 22.217374 8.278126 32.624609 -15.471964 -0.234285 -1.355446 1.850693 -5.093270 -2.291109 0.000000 0.000000 0.000000 13.919912 -25.607118 40.011639 51.234711 44.220802 -35.303030 -110.052980 -47.197567 -68.866032 0.000000 0.000000 0.000000
37.288604 78.569385 361.097349 -10.281405 5.171234 -31.725780 0.443229 0.695288 31.952757 0.472630 0.438240 -0.366939 -1.348174 2.007594 2.996538 0.000000 0.000000 0.000000 57.865758 -15.152781 -2.809952 -1.523470 3.065382 19.496505 8.985763 9.434623 36.345666 -28.359515 9.879785 -39.516112 0.000000 0.000000 0.000000 0.000000 0.000000 0.000000 35.441402 -25.351692 -4.364162 63.727927 -9.888609 6.941481 10.699328 -45.963869 9.204185 22.440310 40.922156 -4.477303 0.000000 0.000000 0.000000 0.000000 0.000000 0.000000 22.585214 8.483973 32.343043 -15.923822 -0.286739 -1.405622 4.038873 -2.607291 -1.567340 0.000000 0.000000 0.000000 13.925824 -25.639646 39.739424 50.084391 43.754297 -34.285856 -105.605296 -42.273378 -77.939848 0.000000 0.000000 0.000000
